<svg width="60" height="57" viewBox="0 0 60 57" fill="none" xmlns="http://www.w3.org/2000/svg">
<path d="M56.2794 31.445L51.4933 29.4583L49.0531 26.8321C48.8965 26.6635 48.6945 26.5722 48.4883 26.5579V24.4683C49.6384 23.1485 50.457 21.4773 50.7874 19.5946C50.9925 19.6046 51.1995 19.5868 51.4038 19.5419C52.5732 19.2843 53.422 18.1165 53.422 16.7655V16.0758C53.422 15.2942 53.1275 14.5769 52.648 14.0639C53.4241 9.52112 52.7849 5.81902 50.791 3.34116C48.8625 0.944521 45.7553 -0.201018 41.806 0.0288967C38.1572 0.241155 35.8017 2.04794 35.0555 2.70893C34.647 2.76114 33.9511 2.91551 33.2468 3.3703C32.2706 4.00064 31.1071 5.32476 31.1071 8.0531C31.1071 10.4332 31.4605 12.4203 31.7165 13.5477C30.8586 13.9975 30.2848 14.9721 30.2848 16.0864V16.7654C30.2848 18.1164 31.1336 19.2841 32.303 19.5418C32.5072 19.5868 32.7144 19.6045 32.9194 19.5945C33.2497 21.4772 34.0685 23.1484 35.2185 24.4681V26.5578C35.0122 26.572 34.8102 26.6634 34.6537 26.832L32.2134 29.4582L27.4274 31.4449C27.0134 31.6167 26.6178 31.8395 26.252 32.107C25.8505 32.4006 25.7462 32.9889 26.0189 33.4209C26.1889 33.6903 26.4654 33.8354 26.7466 33.8354C26.9167 33.8354 27.0885 33.7823 27.2398 33.6718C27.4949 33.4853 27.7709 33.3299 28.06 33.2098L32.5017 31.366L35.8978 36.8485C36.3188 37.5281 36.9935 37.9641 37.7488 38.0446C37.8328 38.0535 37.9169 38.058 38.0003 38.058C38.4375 38.058 38.8618 37.9342 39.2372 37.7056L38.5084 55.4969C38.487 56.0188 38.8628 56.4606 39.3479 56.4836C39.361 56.4842 39.3741 56.4845 39.3872 56.4845C39.8548 56.4845 40.2439 56.0878 40.2646 55.5802L40.941 39.066H42.7656L43.4421 55.5802C43.4628 56.0879 43.8519 56.4845 44.3194 56.4845C44.3326 56.4845 44.3457 56.4842 44.3588 56.4836C44.8437 56.4606 45.2196 56.0188 45.1982 55.4969L44.4694 37.7056C44.8449 37.9342 45.269 38.058 45.7064 38.058C45.7898 38.058 45.8738 38.0535 45.9578 38.0446C46.7131 37.9641 47.3878 37.5281 47.8088 36.8485L51.2049 31.366L55.6467 33.2098C56.2697 33.4684 56.8059 33.8809 57.2276 34.3956L54.1888 37.666C53.0908 38.8476 52.4863 40.4185 52.4863 42.0894V55.5387C52.4863 56.0611 52.8798 56.4846 53.3652 56.4846C53.8506 56.4846 54.2441 56.0611 54.2441 55.5387V42.0894C54.2441 40.9239 54.6658 39.8279 55.4317 39.0037L58.0986 36.1335C58.2057 36.5564 58.2558 37.001 58.2389 37.4555L57.5582 55.5003C57.5385 56.0224 57.9157 56.4626 58.4006 56.484C58.4128 56.4845 58.4249 56.4847 58.437 56.4847C58.9058 56.4847 59.2954 56.086 59.3145 55.5773L59.9954 37.5319C60.0952 34.8552 58.6018 32.4091 56.2794 31.445ZM34.6399 19.2045C34.4849 18.2964 33.7035 17.6363 32.8601 17.7035C32.7934 17.7086 32.7247 17.7036 32.6556 17.6885C32.3061 17.6115 32.0426 17.2146 32.0426 16.7655V16.0863C32.0426 15.6475 32.3151 15.2522 32.6627 15.1865C32.9562 15.131 33.2372 15.2469 33.415 15.4965C33.5763 15.7229 33.7916 15.8848 34.0374 15.9645C34.3974 16.0816 34.7943 16.0129 35.0994 15.781C35.6491 15.3635 36.134 14.8533 36.5407 14.2646C36.8304 13.8454 36.7493 13.2529 36.3599 12.9412C35.9703 12.6295 35.4198 12.7166 35.1301 13.1358C34.9273 13.4294 34.6981 13.6959 34.4458 13.9318C34.1671 13.6752 33.8415 13.4898 33.4927 13.384C33.2669 12.453 32.8649 10.4584 32.8649 8.05284C32.8649 6.60411 33.2799 5.58621 34.0982 5.0275C34.7367 4.59151 35.4121 4.57398 35.4121 4.57398C35.6367 4.57398 35.8554 4.47876 36.0185 4.31266C36.04 4.29096 38.2006 2.13307 41.9007 1.91778C45.2876 1.72104 47.9023 2.6412 49.462 4.5794C51.034 6.53298 51.5574 9.53222 50.9895 13.2862C50.7541 13.2772 50.4964 13.2964 50.2399 13.3424L49.4142 11.2082C49.2457 10.7729 48.8043 10.5378 48.3804 10.6567C48.2987 10.6797 40.1821 12.8941 36.7789 8.33409C36.475 7.92685 35.9219 7.86177 35.5432 8.18893C35.1648 8.51608 35.1044 9.11136 35.4085 9.51873C38.8838 14.1753 45.7796 13.1623 48.0751 12.6683L48.7136 14.3186C48.9882 15.028 49.6906 15.4154 50.383 15.2397C50.6672 15.1677 50.9387 15.1661 51.0406 15.1878C51.3961 15.264 51.6641 15.6455 51.6641 16.0755V16.7654C51.6641 17.2146 51.4005 17.6114 51.0511 17.6883C50.982 17.7036 50.913 17.7086 50.8466 17.7034C50.0033 17.6373 49.2219 18.2961 49.0667 19.2045C48.4273 22.9508 45.3937 25.6699 41.8533 25.6699C38.313 25.6699 35.2793 22.9508 34.6399 19.2045ZM38.5389 35.9249C38.316 36.1648 38.0569 36.1765 37.9221 36.1621C37.7875 36.1479 37.5354 36.0815 37.3606 35.7993L33.9393 30.2763L35.3152 28.7955L40.5675 33.7417L38.5389 35.9249ZM41.0185 37.1744L41.0717 35.8743L41.8532 35.0332L42.6347 35.8743L42.6879 37.1744H41.0185ZM41.8533 32.4386L36.9763 27.846V26.0357C38.3943 27.0061 40.072 27.5617 41.8533 27.5617C43.6347 27.5617 45.3125 27.0061 46.7305 26.0357V27.846L41.8533 32.4386ZM46.3463 35.7993C46.1714 36.0817 45.9193 36.1479 45.7848 36.1621C45.6499 36.1765 45.3908 36.1648 45.1679 35.9248L43.1392 33.7415L48.3916 28.7954L49.7675 30.2762L46.3463 35.7993Z" fill="#CA9883"/>
<path d="M27.8725 36.4025L23.5809 34.3865L21.2349 31.8617C21.0777 31.6925 20.8757 31.6017 20.67 31.5875V30.0995C22.675 28.6815 24.1422 26.4264 24.6136 23.7391C24.8445 23.7502 25.0776 23.7264 25.3073 23.668C26.4319 23.3816 27.2482 22.2217 27.2482 20.91V20.2204C27.2482 19.2622 26.8064 18.4001 26.1219 17.8944C26.3232 17.036 26.4258 16.1579 26.4258 15.2739C26.4258 11.3551 24.4576 7.9035 21.4907 5.92167C21.4591 2.65102 18.8651 0 15.6796 0C12.4941 0 9.90012 2.65102 9.86848 5.92167C6.90175 7.9035 4.93346 11.3553 4.93346 15.2739C4.93346 16.1552 5.03541 17.0309 5.23557 17.8868C4.55142 18.3901 4.11115 19.2561 4.11115 20.2308V20.91C4.11115 22.2217 4.92736 23.3816 6.05202 23.668C6.2817 23.7265 6.51467 23.7502 6.74565 23.7391C7.2171 26.4264 8.68441 28.6815 10.6894 30.0995V31.5875C10.4837 31.6017 10.2817 31.6925 10.1245 31.8617L7.77855 34.3865L3.48701 36.4025C1.30344 37.4284 -0.0957814 39.8387 0.00511743 42.4006L0.524143 55.5792C0.544182 56.0874 0.933363 56.4851 1.40165 56.4851C1.41419 56.4851 1.42684 56.4848 1.4395 56.4842C1.92454 56.4621 2.30095 56.0211 2.28044 55.4991L1.7613 42.3204C1.7279 41.4712 1.93298 40.6473 2.31852 39.9381L4.62537 42.9173C5.3544 43.8588 5.75576 45.0521 5.75576 46.2775V55.5392C5.75576 56.0616 6.14928 56.4851 6.63467 56.4851C7.12007 56.4851 7.51358 56.0616 7.51358 55.5392V46.2775C7.51358 44.6105 6.96737 42.9871 5.97573 41.7063L3.52333 38.5391C3.73181 38.3845 3.95341 38.2475 4.19025 38.1363L7.93042 36.3792L10.5735 40.9963C10.8345 41.4522 11.2659 41.7613 11.7574 41.8445C11.8458 41.8596 11.9344 41.8669 12.0226 41.8669C12.4245 41.8669 12.8159 41.7136 13.1262 41.4286L14.801 39.8906V55.5391C14.801 56.0614 15.1946 56.485 15.6799 56.485C16.1653 56.485 16.5589 56.0614 16.5589 55.5391V39.8908L18.2336 41.4289C18.5439 41.7139 18.9353 41.8671 19.3371 41.8671C19.4253 41.8671 19.514 41.8597 19.6023 41.8448C20.0938 41.7616 20.5253 41.4524 20.7863 40.9965L23.4293 36.3793L27.1695 38.1364C27.4062 38.2476 27.628 38.3846 27.8364 38.5392L25.384 41.7064C24.3924 42.9871 23.8462 44.6106 23.8462 46.2776V55.5393C23.8462 56.0617 24.2397 56.4852 24.7251 56.4852C25.2105 56.4852 25.604 56.0617 25.604 55.5393V46.2776C25.604 45.0523 26.0055 43.8589 26.7344 42.9174L29.0412 39.9383C29.4268 40.6474 29.6319 41.4714 29.5985 42.3205L29.0794 55.4992C29.0589 56.0211 29.4353 56.4621 29.9204 56.4843C29.933 56.485 29.9456 56.4852 29.9582 56.4852C30.4265 56.4852 30.8157 56.0877 30.8357 55.5793L31.3548 42.4007C31.4556 39.8389 30.0562 37.4284 27.8725 36.4025ZM15.6798 1.89179C17.5497 1.89179 19.1273 3.17555 19.5938 4.91499C18.3804 4.42211 17.0602 4.15108 15.6798 4.15108C14.2995 4.15108 12.9792 4.42211 11.7659 4.91499C12.2324 3.17555 13.8099 1.89179 15.6798 1.89179ZM8.46632 23.3493C8.3114 22.4409 7.5287 21.781 6.68659 21.8481C6.61194 21.8538 6.53483 21.847 6.45702 21.8271C6.12186 21.7417 5.86909 21.3474 5.86909 20.91V20.2308C5.86909 19.792 6.14155 19.3967 6.48924 19.331C6.78268 19.2755 7.06358 19.3916 7.24124 19.6409C7.40261 19.8674 7.61788 20.0293 7.86386 20.1093C8.22374 20.2263 8.62089 20.1576 8.92582 19.9257C9.46711 19.5145 9.9457 19.0133 10.3484 18.4362C10.6398 18.0185 10.5614 17.4255 10.1733 17.112C9.78504 16.7983 9.23414 16.8827 8.94269 17.3004C8.74335 17.586 8.51894 17.8457 8.27214 18.0764C7.89609 17.7303 7.43495 17.5137 6.94581 17.4479C6.77741 16.7355 6.69128 16.0069 6.69128 15.274C6.69128 10.1841 10.7235 6.043 15.6798 6.043C20.6361 6.043 24.6683 10.184 24.6683 15.274C24.6683 16.0055 24.5826 16.7326 24.4148 17.4438C24.1835 17.4636 23.9484 17.5043 23.7308 17.5651L23.07 16.9804C22.7381 16.6866 22.3202 16.5395 21.8972 16.5666C20.6054 16.6487 13.9892 16.8368 10.5947 12.4647C10.2834 12.0639 9.72926 12.0104 9.35672 12.3454C8.98418 12.6804 8.93461 13.2769 9.24586 13.6777C10.92 15.834 13.3754 17.2921 16.5439 18.0114C18.9698 18.5622 21.1263 18.5087 21.9712 18.4569L23.002 19.3691C23.2857 19.6202 23.6835 19.6557 24.0012 19.4566C24.1503 19.3692 24.6495 19.2858 24.8674 19.3325C25.2228 19.4086 25.4907 19.7902 25.4907 20.2204V20.91C25.4907 21.3475 25.2379 21.7418 24.9028 21.8271C24.8251 21.8469 24.7478 21.854 24.6732 21.848C23.8315 21.7822 23.0484 22.4409 22.8933 23.3492C22.254 27.0955 19.2203 29.8147 15.6799 29.8147C12.1395 29.8147 9.1057 27.0955 8.46632 23.3493ZM12.0354 39.9436L9.39187 35.3256L10.7461 33.8681L14.3857 37.7851L12.0354 39.9436ZM15.6798 36.5024L12.4473 33.0235V31.0667C13.4564 31.4801 14.5469 31.7065 15.6798 31.7065C16.8128 31.7065 17.9032 31.4801 18.9123 31.0668V33.0235L15.6798 36.5024ZM19.3243 39.9436L16.9739 37.7851L20.6136 33.8681L21.9678 35.3256L19.3243 39.9436Z" fill="#CA9883"/>
</svg>
