<svg width="75" height="75" viewBox="0 0 75 75" fill="none" xmlns="http://www.w3.org/2000/svg">
<g clip-path="url(#clip0)">
<path d="M37.5009 74.9997C58.2115 74.9997 75.0007 58.2105 75.0007 37.4999C75.0007 16.7893 58.2115 0 37.5009 0C16.7902 0 0.000976562 16.7893 0.000976562 37.4999C0.000976562 58.2105 16.7902 74.9997 37.5009 74.9997Z" fill="#4E598F"/>
<path d="M74.9407 35.4052L57.2781 17.7371C56.9854 17.8257 56.2554 17.486 55.9344 17.5504C48.3587 18.8131 41.0356 17.5504 33.7122 19.5706C30.1769 20.5807 29.9243 24.8736 28.6618 27.6514C26.8942 32.7018 27.1467 38.2574 24.8738 43.0553C23.3588 46.3382 19.8234 48.3583 18.5607 52.1462C18.1395 53.7261 18.1645 55.7174 17.6882 57.2278L35.4098 74.9409C36.102 74.979 36.7985 74.9999 37.5 74.9999C58.2105 74.9999 74.9999 58.2105 74.9999 37.5001C75 36.7969 74.9791 36.0986 74.9407 35.4052Z" fill="#364270"/>
<path d="M53.18 16.0349H21.82C18.6254 16.0349 16.0354 18.6247 16.0354 21.8196V53.1795C16.0354 56.3745 18.6252 58.9642 21.82 58.9642H37.2864L37.3132 43.6241H33.3274C32.8094 43.6241 32.389 43.2052 32.3872 42.6872L32.3678 37.7421C32.3657 37.2216 32.7877 36.7981 33.3082 36.7981H37.287V32.0201C37.287 26.4754 40.6734 23.4562 45.6196 23.4562H49.6786C50.1976 23.4562 50.6191 23.8772 50.6191 24.3966V28.566C50.6191 29.0854 50.1981 29.5064 49.6792 29.5064L47.1881 29.5079C44.4982 29.5079 43.977 30.786 43.977 32.6621V36.7987H49.8878C50.4515 36.7987 50.8883 37.2906 50.8216 37.8494L50.2356 42.7946C50.1798 43.268 49.7782 43.6244 49.3017 43.6244H44.0037L43.9769 58.9651H53.1799C56.3746 58.9651 58.9645 56.3749 58.9645 53.1803V21.8196C58.9647 18.6249 56.3747 16.0349 53.18 16.0349Z" fill="white"/>
<path d="M37.2864 58.964L37.3132 43.6239H37.2476V58.964H37.2864Z" fill="white"/>
<path d="M53.18 16.0349H37.2476V36.7977H37.287V32.0198C37.287 26.4751 40.6734 23.4559 45.6195 23.4559H49.6786C50.1976 23.4559 50.619 23.8769 50.619 24.3964V28.5657C50.619 29.0852 50.198 29.5061 49.6792 29.5061L47.1881 29.5076C44.4982 29.5076 43.977 30.7857 43.977 32.6618V36.7983H49.8878C50.4515 36.7983 50.8883 37.2902 50.8216 37.849L50.2355 42.7941C50.1797 43.2676 49.7782 43.624 49.3017 43.624H44.0037L43.9769 58.9646H53.1799C56.3745 58.9646 58.9645 56.3745 58.9645 53.1798V21.8196C58.9647 18.6249 56.3747 16.0349 53.18 16.0349Z" fill="#D1D1D1"/>
</g>
<defs>
<clipPath id="clip0">
<rect width="75" height="75" fill="white"/>
</clipPath>
</defs>
</svg>
