<svg width="75" height="75" viewBox="0 0 75 75" fill="none" xmlns="http://www.w3.org/2000/svg">
<path d="M37.5 75C58.2107 75 75 58.2107 75 37.5C75 16.7893 58.2107 0 37.5 0C16.7893 0 0 16.7893 0 37.5C0 58.2107 16.7893 75 37.5 75Z" fill="#6C27B3"/>
<path d="M54.8893 19.4711C50.4088 20.0383 45.7371 20.0185 41.0356 19.5709C34.4698 19.0658 24.8739 16.0355 21.3385 22.0961C15.6591 31.7987 18.4603 44.2204 19.7838 55.213L39.5206 74.9456C58.6204 73.9315 73.9278 58.6263 74.9451 39.5272L54.8893 19.4711Z" fill="#501A96"/>
<path d="M46.1761 16.0355H28.8243C21.7726 16.0355 16.0356 21.7724 16.0356 28.8242V46.176C16.0356 53.2275 21.7726 58.9648 28.8245 58.9648H46.1763C53.2277 58.9648 58.9651 53.2278 58.9651 46.176V28.8242C58.9649 21.7724 53.2279 16.0355 46.1761 16.0355ZM54.6463 46.1761C54.6463 50.854 50.8541 54.6462 46.1763 54.6462H28.8245C24.1466 54.6462 20.3544 50.854 20.3544 46.1761V28.8243C20.3544 24.1465 24.1466 20.3542 28.8245 20.3542H46.1763C50.8541 20.3542 54.6463 24.1467 54.6463 28.8243V46.1761Z" fill="white"/>
<path d="M37.5004 26.3967C31.3783 26.3967 26.3972 31.3778 26.3972 37.5C26.3972 43.6217 31.3783 48.6027 37.5004 48.6027C43.6226 48.6027 48.6032 43.6221 48.6032 37.5C48.6032 31.3778 43.6226 26.3967 37.5004 26.3967ZM37.5004 44.2841C33.7535 44.2841 30.7159 41.247 30.7159 37.5C30.7159 33.7529 33.7535 30.7154 37.5004 30.7154C41.2474 30.7154 44.2846 33.7527 44.2846 37.5C44.2846 41.2469 41.2474 44.2841 37.5004 44.2841Z" fill="white"/>
<path d="M51.2848 26.481C51.2848 27.9503 50.0936 29.1416 48.6242 29.1416C47.155 29.1416 45.9636 27.9503 45.9636 26.481C45.9636 25.0116 47.155 23.8204 48.6242 23.8204C50.0939 23.8204 51.2848 25.0114 51.2848 26.481Z" fill="#D1D1D1"/>
<path d="M46.1761 16.0355H37.416V20.3542H46.1761C50.8539 20.3542 54.6461 24.1467 54.6461 28.8243V46.1761C54.6461 50.854 50.8539 54.6462 46.1761 54.6462H37.416V58.9648H46.1761C53.2275 58.9648 58.9647 53.2278 58.9647 46.176V28.8242C58.9647 21.7724 53.2277 16.0355 46.1761 16.0355Z" fill="#D1D1D1"/>
<path d="M37.5001 26.3967C37.4718 26.3967 37.4443 26.3988 37.416 26.3988V30.7174C37.444 30.7171 37.4718 30.7154 37.5001 30.7154C41.247 30.7154 44.2842 33.7527 44.2842 37.5C44.2842 41.2469 41.2472 44.2841 37.5001 44.2841C37.4718 44.2841 37.444 44.2823 37.416 44.282V48.6007C37.4443 48.601 37.4718 48.6027 37.5001 48.6027C43.6223 48.6027 48.6029 43.622 48.6029 37.5C48.6029 31.3778 43.6223 26.3967 37.5001 26.3967Z" fill="#D1D1D1"/>
</svg>
