<svg width="29" height="29" viewBox="0 0 29 29" fill="none" xmlns="http://www.w3.org/2000/svg">
<path d="M26.5833 3.625H2.41669C1.08382 3.625 0 4.70882 0 6.04169V22.9584C0 24.2912 1.08382 25.375 2.41669 25.375H26.5834C27.9162 25.375 29 24.2912 29 22.9583V6.04169C29 4.70882 27.9162 3.625 26.5833 3.625ZM2.41669 4.83331H26.5834C26.6724 4.83331 26.7509 4.86577 26.8344 4.88412C24.7422 6.79897 17.8046 13.1457 15.3768 15.3331C15.1868 15.5042 14.8806 15.7083 14.5001 15.7083C14.1195 15.7083 13.8133 15.5042 13.6227 15.3325C11.1951 13.1454 4.25717 6.7984 2.16526 4.88423C2.24897 4.86588 2.32759 4.83331 2.41669 4.83331ZM1.20831 22.9583V6.04169C1.20831 5.92331 1.244 5.81592 1.27594 5.70773C2.87729 7.17337 7.71802 11.6018 10.8568 14.456C7.72822 17.1435 2.88624 21.7341 1.27215 23.2732C1.24366 23.1705 1.20831 23.07 1.20831 22.9583ZM26.5833 24.1667H2.41669C2.32017 24.1667 2.23436 24.133 2.14424 24.1115C3.81214 22.5215 8.68493 17.9045 11.7585 15.2751C12.1592 15.6385 12.5252 15.9699 12.8138 16.2299C13.3117 16.6795 13.8946 16.9167 14.5 16.9167C15.1054 16.9167 15.6883 16.6795 16.1856 16.2305C16.4743 15.9704 16.8406 15.6387 17.2415 15.2751C20.3152 17.9042 25.1873 22.5209 26.8558 24.1115C26.7656 24.133 26.6799 24.1667 26.5833 24.1667ZM27.7917 22.9583C27.7917 23.07 27.7563 23.1705 27.7279 23.2732C26.1132 21.7333 21.2718 17.1432 18.1432 14.4561C21.2821 11.6018 26.1221 7.17382 27.7241 5.70762C27.756 5.8158 27.7917 5.92325 27.7917 6.04163V22.9583Z" fill="#CA9883"/>
</svg>
