<svg width="60" height="60" viewBox="0 0 60 60" fill="none" xmlns="http://www.w3.org/2000/svg">
<g clip-path="url(#clip0)">
<path d="M46.1415 14.97V7.53012C46.1415 5.47805 44.4729 3.80859 42.4219 3.80859C40.4089 3.80859 38.7652 5.41395 38.7018 7.41094C34.9083 10.6008 27.9101 13.8663 21.4639 14.2311V13.0716C21.4639 11.1185 19.8757 9.52945 17.9236 9.52945H12.3729C10.4208 9.52945 8.83266 11.1185 8.83266 13.0716V14.3375C3.8666 14.9204 0 19.1559 0 24.2807C0 29.4055 3.8666 33.641 8.83266 34.2239V35.4899C8.83266 37.0321 9.82324 38.3464 11.201 38.8315V55.0195C11.201 55.6666 11.7258 56.1914 12.3729 56.1914H15.1499C17.3255 56.1914 19.0955 54.4191 19.0955 52.2405V38.8316C20.4732 38.3466 21.4639 37.0322 21.4639 35.49V34.3304C27.9102 34.6952 34.9083 37.9608 38.7018 41.1505C38.7652 43.1475 40.4088 44.7529 42.4219 44.7529C44.4729 44.7529 46.1415 43.0834 46.1415 41.0313V33.5914C49.7314 31.9268 52.0909 28.2844 52.0909 24.2808C52.0909 20.2772 49.7314 16.6346 46.1415 14.97ZM17.3066 31.9512H12.9901V16.6103H17.3066V31.9512ZM11.1764 13.0716C11.1764 12.4107 11.7131 11.8732 12.3729 11.8732H17.9236C18.5834 11.8732 19.1202 12.4107 19.1202 13.0716V14.2665H11.1764V13.0716ZM2.34375 24.2807C2.34375 20.0511 5.78039 16.6103 10.0045 16.6103H10.6464V31.9512H10.0045C5.78039 31.9512 2.34375 28.5102 2.34375 24.2807ZM16.7517 52.2405C16.7517 53.1267 16.0331 53.8477 15.1499 53.8477H13.5448V39.0319H16.7517V52.2405ZM19.1202 35.49C19.1202 36.1507 18.5834 36.6882 17.9236 36.6882H12.3729C11.7131 36.6882 11.1764 36.1507 11.1764 35.49V34.2949H19.1202V35.49ZM43.7978 41.0313C43.7978 41.7909 43.1805 42.4091 42.4219 42.4091C41.6613 42.4091 41.0425 41.7911 41.0425 41.0313V29.5463C41.0425 28.8991 40.5177 28.3744 39.8706 28.3744C39.2235 28.3744 38.6987 28.8991 38.6987 29.5463V38.1893C34.0789 34.8889 26.9066 31.9512 20.2921 31.9512H19.6502V16.6103H20.2921C26.9065 16.6103 34.0791 13.6724 38.6987 10.372V19.0151C38.6987 19.6622 39.2235 20.187 39.8706 20.187C40.5177 20.187 41.0425 19.6622 41.0425 19.0151V7.53012C41.0425 6.77051 41.6612 6.15234 42.4219 6.15234C43.1807 6.15234 43.7978 6.77039 43.7978 7.53012V15.7508V32.8105V41.0313ZM46.1415 30.9197V17.6418C48.35 19.0815 49.7471 21.5743 49.7471 24.2807C49.7471 26.987 48.35 29.4799 46.1415 30.9197Z" fill="#CA9883"/>
<path d="M58.8281 23.1087H56.4065C55.7594 23.1087 55.2346 23.6335 55.2346 24.2806C55.2346 24.9277 55.7594 25.4525 56.4065 25.4525H58.8281C59.4752 25.4525 59.9999 24.9277 59.9999 24.2806C59.9999 23.6335 59.4752 23.1087 58.8281 23.1087Z" fill="#CA9883"/>
<path d="M55.1841 18.1729C55.4836 18.1729 55.7832 18.0588 56.0118 17.8305L58.4301 15.4172C58.8882 14.96 58.889 14.2181 58.4318 13.7599C57.9748 13.3016 57.2327 13.301 56.7746 13.7581L54.3563 16.1715C53.8982 16.6286 53.8974 17.3706 54.3545 17.8288C54.5835 18.0583 54.8839 18.1729 55.1841 18.1729V18.1729Z" fill="#CA9883"/>
<path d="M56.0119 30.7308C55.5538 30.2737 54.8119 30.2743 54.3546 30.7326C53.8974 31.1907 53.8981 31.9326 54.3563 32.3899L56.7746 34.8032C57.0034 35.0315 57.3028 35.1457 57.6023 35.1457C57.9026 35.1457 58.2029 35.0309 58.4318 34.8015C58.8889 34.3434 58.8882 33.6015 58.43 33.1442L56.0119 30.7308Z" fill="#CA9883"/>
<path d="M39.8704 23.1087C39.2233 23.1087 38.6985 23.6335 38.6985 24.2806V24.2873C38.6985 24.9344 39.2233 25.4558 39.8704 25.4558C40.5175 25.4558 41.0422 24.9278 41.0422 24.2807C41.0422 23.6336 40.5176 23.1087 39.8704 23.1087Z" fill="#CA9883"/>
</g>
<defs>
<clipPath id="clip0">
<rect width="60" height="60" fill="white"/>
</clipPath>
</defs>
</svg>
