<svg width="60" height="60" viewBox="0 0 60 60" fill="none" xmlns="http://www.w3.org/2000/svg">
<path d="M40.0725 38.4795C38.6509 38.4795 37.4944 37.4785 37.4944 36.2481C37.4944 35.0177 38.6509 34.0167 40.0725 34.0167C41.4941 34.0167 42.6506 35.0177 42.6506 36.2481C42.6506 36.8952 43.1754 37.42 43.8225 37.42C44.4696 37.42 44.9944 36.8952 44.9944 36.2481C44.9944 34.1007 43.3943 32.2951 41.2444 31.805V31.1955C41.2444 30.5484 40.7196 30.0236 40.0725 30.0236C39.4254 30.0236 38.9006 30.5484 38.9006 31.1955V31.805C36.7507 32.2951 35.1506 34.1007 35.1506 36.2481C35.1506 38.7708 37.3586 40.8232 40.0725 40.8232C41.4941 40.8232 42.6506 41.8243 42.6506 43.0547C42.6506 44.2852 41.4941 45.2862 40.0725 45.2862C38.6509 45.2862 37.4944 44.2852 37.4944 43.0547C37.4944 42.4076 36.9696 41.8829 36.3225 41.8829C35.6754 41.8829 35.1506 42.4076 35.1506 43.0547C35.1506 45.2022 36.7507 47.0078 38.9006 47.4979V48.0041C38.9006 48.6512 39.4254 49.176 40.0725 49.176C40.7196 49.176 41.2444 48.6512 41.2444 48.0041V47.4979C43.3943 47.0078 44.9944 45.2022 44.9944 43.0547C44.9944 40.5319 42.7864 38.4795 40.0725 38.4795Z" fill="#CA9883"/>
<path d="M52.9079 31.5092C51.3771 29.1239 49.2204 27.2151 46.6709 25.9896C46.0875 25.709 45.3873 25.9547 45.107 26.538C44.8265 27.1214 45.072 27.8214 45.6554 28.1019C50.0981 30.2375 52.9686 34.8007 52.9686 39.727C52.9686 41.8349 52.449 43.9255 51.4661 45.7728C51.1621 46.3441 51.3788 47.0538 51.9502 47.3577C52.1255 47.451 52.314 47.4953 52.4996 47.4953C52.9189 47.4953 53.3245 47.2696 53.5352 46.8736C54.6978 44.6888 55.3123 42.2174 55.3123 39.727C55.3123 36.802 54.4809 33.9603 52.9079 31.5092Z" fill="#CA9883"/>
<path d="M41.9146 24.4925L41.8357 24.4924C41.1886 24.4924 40.6638 25.0171 40.6638 25.6643C40.6638 26.3115 41.1886 26.8362 41.8357 26.8362L41.9035 26.8363C41.9054 26.8363 41.9072 26.8363 41.9092 26.8363C42.5538 26.8363 43.0779 26.3153 43.0809 25.6699C43.0839 25.0227 42.5617 24.4956 41.9146 24.4925Z" fill="#CA9883"/>
<path d="M34.5006 51.3517C30.058 49.2159 27.1875 44.6528 27.1875 39.7266C27.1875 37.6186 27.7071 35.5281 28.69 33.6808C28.9939 33.1095 28.7773 32.3998 28.2059 32.0958C27.6347 31.7918 26.9248 32.0085 26.6209 32.5799C25.4583 34.7649 24.8438 37.2361 24.8438 39.7266C24.8438 42.6516 25.6752 45.4931 27.2482 47.9443C28.779 50.3297 30.9357 52.2384 33.4851 53.4641C33.6489 53.5428 33.8218 53.58 33.9921 53.58C34.4285 53.58 34.8473 53.3352 35.0491 52.9157C35.3293 52.3323 35.0839 51.6321 34.5006 51.3517Z" fill="#CA9883"/>
<path d="M38.3205 52.6172L38.2526 52.6169C37.6024 52.6158 37.0784 53.136 37.0755 53.7833C37.0724 54.4305 37.5948 54.9577 38.2419 54.9607L38.3205 54.9609C38.9676 54.9609 39.4923 54.4362 39.4923 53.7891C39.4923 53.1419 38.9676 52.6172 38.3205 52.6172Z" fill="#CA9883"/>
<path d="M45.3994 20.5275C45.2568 20.1876 45.0821 19.8673 44.8787 19.5703H47.9296C50.9019 19.5703 53.3202 17.152 53.3202 14.1797C53.3202 11.2073 50.9019 8.78905 47.9296 8.78905H38.5452C39.1418 7.92163 39.4921 6.87221 39.4921 5.74218C39.4921 2.76984 37.0738 0.351562 34.1015 0.351562H5.39061C2.41828 0.351562 0 2.76984 0 5.74218C0 8.71452 2.41828 11.1328 5.39061 11.1328H14.775C14.1784 12.0002 13.8281 13.0496 13.8281 14.1797C13.8281 15.3097 14.1783 16.3591 14.775 17.2265H11.7187C8.74639 17.2265 6.32811 19.6448 6.32811 22.6171C6.32811 24.3242 7.12663 25.8475 8.36893 26.8359C7.12663 27.8242 6.32811 29.3476 6.32811 31.0546C6.32811 32.7617 7.12663 34.285 8.36893 35.2734C7.12663 36.2617 6.32811 37.7851 6.32811 39.4921C6.32811 41.1992 7.12663 42.7225 8.36893 43.7109C7.12663 44.6992 6.32811 46.2225 6.32811 47.9296C6.32811 50.9019 8.74639 53.3202 11.7187 53.3202H25.5292C29.1674 57.2117 34.3431 59.6484 40.0782 59.6484C51.0631 59.6484 60 50.7115 60 39.7266C60 30.584 53.809 22.8612 45.3994 20.5275ZM47.9296 11.1328C49.6097 11.1328 50.9765 12.4997 50.9765 14.1797C50.9765 15.8597 49.6097 17.2265 47.9296 17.2265H40.4296H19.2187C17.5386 17.2265 16.1718 15.8597 16.1718 14.1797C16.1718 12.4997 17.5386 11.1328 19.2187 11.1328H47.9296ZM5.39061 8.78905C3.7105 8.78905 2.34375 7.42217 2.34375 5.74218C2.34375 4.06218 3.7105 2.69531 5.39061 2.69531H34.1015C35.7816 2.69531 37.1484 4.06218 37.1484 5.74218C37.1484 7.42217 35.7816 8.78905 34.1015 8.78905H5.39061ZM11.7187 19.5703H40.4296C40.9016 19.5703 41.3536 19.68 41.7591 19.8764C41.2048 19.8298 40.6444 19.8048 40.0782 19.8048C34.5768 19.8048 29.5893 22.0464 25.9807 25.664H11.7187C10.0387 25.664 8.67186 24.2971 8.67186 22.6171C8.67186 20.9372 10.0387 19.5703 11.7187 19.5703ZM11.7187 28.0078H23.9783C22.648 29.8304 21.6194 31.8861 20.9662 34.1015H11.7187C10.0386 34.1015 8.67186 32.7347 8.67186 31.0546C8.67186 29.3746 10.0386 28.0078 11.7187 28.0078ZM11.7187 36.4452H20.4281C20.2503 37.5132 20.1563 38.609 20.1563 39.7266C20.1563 40.6812 20.2254 41.6199 20.3558 42.539H11.7187C10.0386 42.539 8.67186 41.1722 8.67186 39.4921C8.67186 37.812 10.0386 36.4452 11.7187 36.4452ZM11.7187 50.9765C10.0386 50.9765 8.67186 49.6097 8.67186 47.9296C8.67186 46.2495 10.0386 44.8827 11.7187 44.8827H20.8343C21.4256 47.0874 22.3862 49.142 23.6459 50.9765H11.7187ZM40.0782 57.3047C30.3856 57.3047 22.5001 49.4192 22.5001 39.7266C22.5001 30.034 30.3856 22.1485 40.0782 22.1485C49.7707 22.1485 57.6563 30.034 57.6563 39.7266C57.6563 49.4192 49.7707 57.3047 40.0782 57.3047Z" fill="#CA9883"/>
</svg>
