<svg width="29" height="29" viewBox="0 0 29 29" fill="none" xmlns="http://www.w3.org/2000/svg">
<g clip-path="url(#clip0)">
<path d="M20.8427 29C19.9066 29 18.9784 28.8345 18.0707 28.5048C14.0722 27.0522 10.3607 24.6864 7.33733 21.6631C4.31398 18.6398 1.9482 14.9283 0.495709 10.9297C0.0289526 9.64471 -0.108792 8.31824 0.0864405 6.98701C0.269326 5.74007 0.752337 4.52954 1.48331 3.48626C2.21751 2.43839 3.19634 1.56684 4.31392 0.965853C5.50571 0.324991 6.80652 0 8.18034 0C8.60762 0 8.9769 0.298541 9.06644 0.716305L10.4889 7.35426C10.5533 7.65484 10.4609 7.96759 10.2436 8.18497L7.81304 10.6154C10.1059 15.174 13.8263 18.8945 18.3849 21.1873L20.8154 18.7568C21.0327 18.5395 21.3455 18.4472 21.6461 18.5115L28.284 19.9339C28.7019 20.0235 29.0004 20.3927 29.0004 20.82C29.0004 22.1938 28.6754 23.4947 28.0344 24.6865C27.4335 25.8041 26.5619 26.7829 25.514 27.5171C24.4708 28.2481 23.2603 28.7311 22.0133 28.914C21.6225 28.9713 21.2318 28.9999 20.8427 29ZM7.45627 1.85207C5.64413 2.05212 4.03572 3.00194 2.96763 4.52636C1.76656 6.24052 1.48648 8.34888 2.19922 10.3109C4.99171 17.9982 11.0022 24.0088 18.6895 26.8012C20.6515 27.514 22.7599 27.234 24.4741 26.0328C25.9985 24.9647 26.9483 23.3563 27.1484 21.5442L21.7484 20.3871L19.2101 22.9254C18.94 23.1955 18.5296 23.2672 18.184 23.1048C12.7926 20.5719 8.42853 16.2078 5.89566 10.8164C5.73328 10.4708 5.80498 10.0604 6.07509 9.79033L8.61339 7.25203L7.45627 1.85207Z" fill="#CA9883"/>
<path d="M28.0936 15.4056C27.5932 15.4056 27.1874 14.9999 27.1874 14.4994C27.1874 7.50378 21.4961 1.81243 14.5005 1.81243C14 1.81243 13.5942 1.40667 13.5942 0.906213C13.5942 0.405757 14 0 14.5005 0C18.3734 0 22.0145 1.50816 24.7531 4.24674C27.4917 6.98532 28.9999 10.6264 28.9999 14.4994C28.9999 14.9999 28.5942 15.4056 28.0936 15.4056Z" fill="#CA9883"/>
<path d="M24.4688 15.4055C23.9683 15.4055 23.5626 14.9998 23.5626 14.4993C23.5626 9.50245 19.4973 5.43718 14.5005 5.43718C14 5.43718 13.5942 5.03143 13.5942 4.53097C13.5942 4.03051 14 3.62476 14.5005 3.62476C20.4967 3.62476 25.375 8.50307 25.375 14.4993C25.375 14.9998 24.9693 15.4055 24.4688 15.4055Z" fill="#CA9883"/>
<path d="M20.8439 15.4054C20.3435 15.4054 19.9377 14.9997 19.9377 14.4992C19.9377 11.5011 17.4986 9.06194 14.5005 9.06194C14 9.06194 13.5942 8.65618 13.5942 8.15572C13.5942 7.65527 14 7.24951 14.5005 7.24951C18.498 7.24951 21.7502 10.5017 21.7502 14.4992C21.7502 14.9997 21.3445 15.4054 20.8439 15.4054Z" fill="#CA9883"/>
</g>
<defs>
<clipPath id="clip0">
<rect width="29" height="29" fill="white"/>
</clipPath>
</defs>
</svg>
