<svg width="33" height="33" viewBox="0 0 33 33" fill="none" xmlns="http://www.w3.org/2000/svg">
<g clip-path="url(#clip0)">
<path d="M23.7175 33C22.6522 33 21.596 32.8117 20.5632 32.4364C16.0131 30.7835 11.7897 28.0914 8.34931 24.6511C4.90895 21.2108 2.21685 16.9873 0.564015 12.4373C0.0328787 10.975 -0.123865 9.46558 0.098296 7.95074C0.306407 6.5318 0.85604 5.1543 1.68784 3.96712C2.52331 2.77472 3.63714 1.78296 4.90888 1.09907C6.26505 0.369817 7.74528 0 9.30859 0C9.79481 0 10.215 0.339718 10.3169 0.815105L11.9355 8.36864C12.0088 8.71068 11.9037 9.06657 11.6564 9.31393L8.89063 12.0796C11.4997 17.267 15.7333 21.5006 20.9207 24.1097L23.6864 21.3439C23.9337 21.0966 24.2897 20.9917 24.6317 21.0648L32.1852 22.6834C32.6607 22.7853 33.0003 23.2055 33.0003 23.6917C33.0003 25.2551 32.6305 26.7353 31.9012 28.0915C31.2173 29.3633 30.2256 30.4771 29.0332 31.3126C27.846 32.1444 26.4685 32.694 25.0495 32.9021C24.6049 32.9674 24.1603 32.9999 23.7175 33ZM8.48466 2.10753C6.42257 2.33517 4.5923 3.416 3.37689 5.15069C2.01016 7.10128 1.69145 9.50045 2.50249 11.7331C5.68016 20.4808 12.5197 27.3203 21.2673 30.498C23.4999 31.309 25.8992 30.9904 27.8498 29.6236C29.5845 28.4082 30.6653 26.5779 30.8929 24.5158L24.7482 23.1991L21.8597 26.0875C21.5524 26.3949 21.0854 26.4765 20.6921 26.2917C14.5571 23.4094 9.59102 18.4434 6.70879 12.3084C6.52401 11.915 6.6056 11.448 6.91297 11.1407L9.80138 8.2523L8.48466 2.10753Z" fill="white"/>
<path d="M31.9686 17.5305C31.3991 17.5305 30.9374 17.0688 30.9374 16.4993C30.9374 8.53879 24.461 2.06242 16.5004 2.06242C15.931 2.06242 15.4692 1.60069 15.4692 1.03121C15.4692 0.461723 15.931 0 16.5004 0C20.9076 0 25.051 1.71619 28.1673 4.8325C31.2836 7.94881 32.9998 12.0921 32.9998 16.4993C32.9998 17.0688 32.5381 17.5305 31.9686 17.5305Z" fill="white"/>
<path d="M27.8437 17.5305C27.2742 17.5305 26.8125 17.0687 26.8125 16.4993C26.8125 10.8132 22.1865 6.18717 16.5004 6.18717C15.931 6.18717 15.4692 5.72545 15.4692 5.15596C15.4692 4.58648 15.931 4.12476 16.5004 4.12476C23.3238 4.12476 28.8749 9.67594 28.8749 16.4993C28.8749 17.0687 28.4133 17.5305 27.8437 17.5305Z" fill="white"/>
<path d="M23.7189 17.5304C23.1494 17.5304 22.6877 17.0687 22.6877 16.4992C22.6877 13.0875 19.9121 10.3119 16.5004 10.3119C15.931 10.3119 15.4692 9.8502 15.4692 9.28072C15.4692 8.71124 15.931 8.24951 16.5004 8.24951C21.0494 8.24951 24.7501 11.9503 24.7501 16.4992C24.7501 17.0687 24.2884 17.5304 23.7189 17.5304Z" fill="white"/>
</g>
<defs>
<clipPath id="clip0">
<rect width="33" height="33" fill="white"/>
</clipPath>
</defs>
</svg>
