<svg width="75" height="75" viewBox="0 0 75 75" fill="none" xmlns="http://www.w3.org/2000/svg">
<path d="M37.5 75C58.2107 75 75 58.2107 75 37.5C75 16.7893 58.2107 0 37.5 0C16.7893 0 0 16.7893 0 37.5C0 58.2107 16.7893 75 37.5 75Z" fill="#D22215"/>
<path d="M56.3756 24.9519C55.2511 25.2951 54.0785 25.59 52.9041 25.8837C44.5707 27.6513 33.4596 22.8534 28.6617 30.6816C24.6602 36.9063 23.3967 44.6955 18.8447 50.2612L43.1586 74.5751C59.3408 72.1259 72.1293 59.3354 74.576 43.1526L56.3756 24.9519Z" fill="#A81411"/>
<path d="M50.0464 22.3145H24.9539C20.0309 22.3145 16.04 26.3054 16.04 31.2283V43.7721C16.04 48.6951 20.031 52.6859 24.9539 52.6859H50.0464C54.9694 52.6859 58.9603 48.695 58.9603 43.7721V31.2283C58.9603 26.3054 54.9693 22.3145 50.0464 22.3145ZM44.0178 38.1104L32.2815 43.7079C31.9686 43.8572 31.6072 43.6294 31.6072 43.283V31.7379C31.6072 31.3864 31.9781 31.1586 32.2913 31.3175L44.0276 37.2649C44.3771 37.4417 44.3708 37.9423 44.0178 38.1104Z" fill="white"/>
<path d="M50.0461 22.3145H37.2473V33.8289L44.0276 37.2647C44.3768 37.4416 44.3705 37.942 44.0175 38.1103L37.2473 41.3394V52.6859H50.0461C54.9691 52.6859 58.9599 48.695 58.9599 43.7721V31.2283C58.9599 26.3054 54.969 22.3145 50.0461 22.3145Z" fill="#D1D1D1"/>
</svg>
